<svg xmlns="http://www.w3.org/2000/svg" width="160" height="160" viewBox="0 0 160 160">
  <g id="Groupe_8751" data-name="Groupe 8751" transform="translate(-249 -2370)">
    <path id="Tracé_42973" data-name="Tracé 42973" d="M0,0H160V160H0Z" transform="translate(249 2370)" fill="none"/>
    <g id="Groupe_8750" data-name="Groupe 8750">
      <g id="Groupe_7722" data-name="Groupe 7722" transform="translate(-85.779 1661.652)">
        <g id="Groupe_2060" data-name="Groupe 2060" transform="translate(374.78 711.062)">
          <path id="Tracé_1623" data-name="Tracé 1623" d="M413.423,749.705V711.062a38.643,38.643,0,1,0,38.643,38.643Z" transform="translate(-374.78 -711.062)" fill="#0cc6de"/>
          <path id="Tracé_1624" data-name="Tracé 1624" d="M463.423,761.062H424.78L452.1,788.387A38.522,38.522,0,0,0,463.423,761.062Z" transform="translate(-386.137 -722.419)" fill="#0099b7"/>
        </g>
        <g id="Groupe_2061" data-name="Groupe 2061" transform="translate(429.846 711.062)">
          <path id="Tracé_1625" data-name="Tracé 1625" d="M468.25,732.842h-5.5v-1.716a8.924,8.924,0,0,1-5.94,2.156,10.73,10.73,0,0,1-8.052-3.608,11.454,11.454,0,0,1-2.728-7.48c0-6.293,4.664-11.132,10.472-11.132a9.775,9.775,0,0,1,6.248,2.155V711.5h5.5Zm-5.719-13.86a6.561,6.561,0,0,0-5.28-2.639A5.836,5.836,0,0,0,457.382,728a6.251,6.251,0,0,0,5.149-2.64Z" transform="translate(-446.03 -711.062)" fill="#0cc6de"/>
        </g>
      </g>
      <g id="Groupe_7723" data-name="Groupe 7723" transform="translate(-641.039 2351.315)">
        <path id="Tracé_283" data-name="Tracé 283" d="M931.948,149.625h-3.69v-1.151a5.991,5.991,0,0,1-3.986,1.446,7.2,7.2,0,0,1-5.4-2.42,7.68,7.68,0,0,1-1.831-5.019,7.187,7.187,0,0,1,7.026-7.47,6.563,6.563,0,0,1,4.193,1.447v-1.152h3.69Zm-3.839-9.3a4.4,4.4,0,0,0-3.542-1.772,3.916,3.916,0,0,0,.088,7.823,4.19,4.19,0,0,0,3.454-1.772Z" transform="translate(0 0.764)" fill="#3a3c3d"/>
        <path id="Tracé_284" data-name="Tracé 284" d="M945.53,146.7a7.588,7.588,0,0,1-6.494,3.218,7.458,7.458,0,1,1,.029-14.909,7.639,7.639,0,0,1,6.023,2.864l-2.716,2.391a4.147,4.147,0,0,0-3.307-1.712,3.838,3.838,0,0,0-3.868,3.927,3.782,3.782,0,0,0,3.955,3.9,4.2,4.2,0,0,0,3.425-1.889Z" transform="translate(2.633 0.764)" fill="#3a3c3d"/>
        <path id="Tracé_285" data-name="Tracé 285" d="M951.391,135.011a7.456,7.456,0,1,1-7.617,7.47A7.456,7.456,0,0,1,951.391,135.011Zm0,11.366a3.914,3.914,0,1,0-3.78-3.9A3.74,3.74,0,0,0,951.391,146.377Z" transform="translate(4.908 0.764)" fill="#3a3c3d"/>
        <path id="Tracé_286" data-name="Tracé 286" d="M958.1,149.625V135.306h3.69v1.152a5.7,5.7,0,0,1,3.868-1.447,6.244,6.244,0,0,1,4.813,2.244,7.107,7.107,0,0,1,5.075-2.244,6.533,6.533,0,0,1,5.019,2.3,7.11,7.11,0,0,1,1.446,4.724v7.587h-3.839V141.89a3.365,3.365,0,0,0-.708-2.451,2.878,2.878,0,0,0-2.155-.885,4.471,4.471,0,0,0-3.452,1.89,12.552,12.552,0,0,1,.118,1.594v7.587h-3.838V141.89a3.364,3.364,0,0,0-.709-2.451,2.876,2.876,0,0,0-2.155-.885,4.42,4.42,0,0,0-3.336,1.772v9.3Z" transform="translate(7.443 0.764)" fill="#3a3c3d"/>
        <path id="Tracé_287" data-name="Tracé 287" d="M980.371,150.394V129.748h3.839v7.561A6.413,6.413,0,0,1,988.254,136a7.128,7.128,0,0,1,7.027,7.357,7.5,7.5,0,0,1-1.832,4.944,7.244,7.244,0,0,1-5.4,2.384,6.047,6.047,0,0,1-3.986-1.424v1.133Zm3.839-4.944a4.211,4.211,0,0,0,3.454,1.745,3.855,3.855,0,0,0,.088-7.706,4.421,4.421,0,0,0-3.542,1.745Z" transform="translate(11.632)" fill="#3a3c3d"/>
        <path id="Tracé_288" data-name="Tracé 288" d="M1008.973,149.625h-3.69v-1.151a5.989,5.989,0,0,1-3.986,1.446,7.2,7.2,0,0,1-5.4-2.42,7.687,7.687,0,0,1-1.831-5.019,7.188,7.188,0,0,1,7.027-7.47,6.557,6.557,0,0,1,4.192,1.447v-1.152h3.69Zm-3.838-9.3a4.4,4.4,0,0,0-3.543-1.772,3.916,3.916,0,0,0,.089,7.823,4.191,4.191,0,0,0,3.454-1.772Z" transform="translate(14.147 0.764)" fill="#3a3c3d"/>
      </g>
    </g>
  </g>
</svg>
