<?xml version="1.0" standalone="no"?>
<!DOCTYPE svg PUBLIC "-//W3C//DTD SVG 20010904//EN"
 "http://www.w3.org/TR/2001/REC-SVG-20010904/DTD/svg10.dtd">
<svg version="1.0" xmlns="http://www.w3.org/2000/svg"
 width="3072.000000pt" height="2048.000000pt" viewBox="0 0 3072.000000 2048.000000"
 preserveAspectRatio="xMidYMid meet">
<metadata>
Created by potrace 1.16, written by Peter Selinger 2001-2019
</metadata>
<g transform="translate(0.000000,2048.000000) scale(0.100000,-0.100000)"
fill="#000000" stroke="none">
<path d="M10285 11504 c-11 -2 -45 -9 -75 -15 -212 -41 -367 -136 -430 -264
-22 -43 -25 -64 -25 -155 0 -97 2 -110 30 -164 35 -70 96 -126 180 -166 83
-40 272 -93 425 -119 345 -60 479 -113 521 -205 37 -81 20 -156 -48 -217 -169
-153 -712 -119 -994 61 -25 17 -49 30 -52 30 -5 0 -103 -140 -130 -187 -9 -14
30 -37 153 -90 110 -48 166 -65 305 -95 139 -30 477 -32 604 -4 105 22 216 58
288 92 75 36 166 123 200 192 25 50 28 68 28 152 0 113 -21 167 -95 241 -102
102 -243 157 -596 229 -282 58 -354 79 -416 120 -54 36 -78 80 -78 145 0 92
46 142 172 187 57 20 82 22 253 23 125 0 209 -5 245 -13 101 -25 184 -54 263
-94 43 -21 83 -38 89 -36 8 3 77 171 78 190 0 10 -99 59 -175 86 -33 12 -109
34 -170 48 -96 23 -137 26 -320 29 -115 2 -219 2 -230 -1z"/>
<path d="M7926 11463 c-13 -21 -97 -162 -186 -313 -176 -298 -253 -426 -495
-825 -86 -143 -169 -280 -184 -305 -15 -25 -35 -57 -45 -72 l-18 -28 168 0
169 0 34 63 c40 72 233 394 366 612 122 198 295 500 295 514 0 24 21 9 41 -31
22 -44 285 -485 394 -663 34 -55 115 -189 180 -297 l118 -198 179 0 c98 0 178
2 178 5 0 13 -76 140 -562 945 -88 145 -340 574 -357 608 -11 21 -17 22 -131
22 l-120 0 -24 -37z"/>
<path d="M14370 10708 l0 -788 170 0 170 0 0 295 0 294 253 3 252 3 40 -44
c22 -25 78 -88 125 -141 47 -54 135 -152 195 -220 61 -68 124 -138 140 -157
l30 -34 199 3 199 3 -64 70 c-105 115 -235 251 -387 407 -88 91 -139 150 -130
152 7 3 47 15 88 27 178 51 292 135 353 259 30 61 32 71 31 170 0 139 -21 194
-105 279 -100 101 -260 166 -468 191 -47 6 -312 12 -589 13 l-502 2 0 -787z
m1078 556 c104 -21 150 -43 194 -92 91 -101 80 -268 -25 -357 -95 -81 -190
-96 -592 -93 l-310 3 -3 278 -2 277 330 0 c262 0 347 -3 408 -16z"/>
<path d="M17746 11480 c-7 -8 -81 -127 -163 -265 -132 -220 -246 -406 -416
-680 -27 -44 -66 -107 -87 -140 -20 -33 -66 -106 -101 -163 -35 -56 -92 -149
-125 -205 l-62 -102 156 -3 c86 -1 161 -1 168 2 12 4 32 37 284 446 73 118
192 310 265 425 73 116 147 237 165 268 17 31 36 57 41 57 4 0 30 -37 57 -82
27 -46 116 -191 199 -323 82 -132 163 -261 179 -288 16 -26 61 -98 100 -160
39 -61 104 -165 144 -229 l74 -118 188 0 c103 0 188 2 188 5 0 3 -66 106 -147
230 -82 123 -176 270 -211 327 -67 111 -134 218 -228 365 -63 98 -275 432
-360 567 l-51 81 -122 0 c-96 0 -125 -3 -135 -15z"/>
<path d="M19679 11488 c-2 -7 -3 -363 -1 -790 l2 -778 725 0 726 0 -3 101 -3
100 -544 5 c-300 3 -549 8 -553 10 -4 3 -8 311 -8 685 l0 679 -169 0 c-127 0
-170 -3 -172 -12z"/>
<path d="M21810 10711 l0 -791 750 0 750 0 0 106 0 106 -577 -3 -578 -3 -3
244 c-2 188 1 245 10 252 7 4 226 8 486 8 l472 0 0 95 0 95 -485 0 -485 0 0
230 0 230 543 2 542 3 3 103 3 102 -673 1 c-370 0 -692 2 -715 5 l-43 5 0
-790z"/>
<path d="M11910 11390 c0 -73 3 -100 13 -101 6 -1 17 -2 22 -4 6 -1 148 -3
317 -3 l308 -2 2 -677 3 -678 168 -3 167 -2 0 77 c1 169 12 1278 14 1279 0 1
148 4 328 7 179 2 331 8 337 11 7 5 11 44 11 102 l0 94 -845 0 -845 0 0 -100z"/>
</g>
</svg>
