<?xml version="1.0" standalone="no"?>
<!DOCTYPE svg PUBLIC "-//W3C//DTD SVG 20010904//EN"
 "http://www.w3.org/TR/2001/REC-SVG-20010904/DTD/svg10.dtd">
<svg version="1.0" xmlns="http://www.w3.org/2000/svg"
 width="1121.000000pt" height="191.000000pt" viewBox="0 0 1121.000000 191.000000"
 preserveAspectRatio="xMidYMid meet">
<metadata>
Created by potrace 1.16, written by Peter Selinger 2001-2019
</metadata>
<g transform="translate(0.000000,191.000000) scale(0.100000,-0.100000)"
fill="#ffffff" stroke="none">
<path d="M3715 1407 c-106 -28 -155 -75 -155 -150 0 -90 57 -130 237 -166 121
-24 167 -42 182 -69 16 -30 14 -48 -11 -77 -50 -56 -212 -57 -335 0 l-53 24
-20 -29 c-26 -37 -25 -44 8 -60 142 -65 325 -72 449 -15 95 43 124 139 62 209
-36 42 -96 65 -242 96 -121 26 -157 46 -157 90 0 59 63 85 184 77 50 -3 100
-13 129 -26 27 -12 52 -21 56 -21 9 0 31 61 25 71 -3 5 -35 18 -72 29 -84 26
-220 34 -287 17z"/>
<path d="M2893 1398 c-7 -10 -309 -512 -330 -550 -2 -5 23 -8 55 -8 l60 0 122
208 c68 114 126 211 130 215 4 4 65 -89 136 -208 l129 -215 67 0 68 0 -114
188 c-62 103 -139 231 -170 285 l-57 97 -43 0 c-24 0 -48 -6 -53 -12z"/>
<path d="M4350 1370 l0 -40 120 0 120 0 0 -245 0 -245 60 0 60 0 0 245 0 244
123 3 122 3 3 38 3 37 -305 0 -306 0 0 -40z"/>
<path d="M5240 1126 l0 -286 65 0 65 0 0 105 0 105 93 0 93 0 93 -105 93 -105
69 0 c38 0 69 2 69 5 0 3 -46 54 -101 112 -98 103 -101 107 -78 116 120 48
149 81 149 166 0 44 -5 56 -35 90 -60 66 -97 74 -352 79 l-223 4 0 -286z m435
190 c79 -34 73 -137 -11 -172 -23 -10 -75 -14 -164 -14 l-130 0 0 100 0 100
135 0 c94 0 146 -4 170 -14z"/>
<path d="M6470 1403 c0 -5 -76 -132 -169 -283 l-169 -275 50 -3 c28 -2 56 -1
62 1 6 3 70 99 141 215 72 116 132 212 136 212 3 0 65 -97 139 -215 l133 -215
70 0 69 0 -18 28 c-10 15 -75 117 -144 227 -223 353 -193 315 -250 315 -28 0
-50 -3 -50 -7z"/>
<path d="M7180 1125 l0 -285 265 0 265 0 0 35 0 35 -200 0 -200 0 0 250 0 250
-65 0 -65 0 0 -285z"/>
<path d="M7960 1125 l0 -285 275 0 275 0 0 35 0 35 -215 0 -215 0 0 90 0 90
178 2 177 3 3 32 3 33 -178 2 -178 3 -3 82 -3 83 198 2 198 3 3 38 3 37 -260
0 -261 0 0 -285z"/>
</g>
</svg>
